<svg xmlns="http://www.w3.org/2000/svg" viewBox="0 0 32 32" fill="none">
  <defs>
    <linearGradient id="qmIconStroke" x1="4" y1="6" x2="26" y2="26" gradientUnits="userSpaceOnUse">
      <stop stop-color="#7dd3fc" />
      <stop offset="1" stop-color="#818cf8" />
    </linearGradient>
    <linearGradient id="qmIconEdge" x1="4" y1="6" x2="26" y2="26" gradientUnits="userSpaceOnUse">
      <stop stop-color="#38bdf8" stop-opacity="0.25" />
      <stop offset="1" stop-color="#6366f1" stop-opacity="0.35" />
    </linearGradient>
  </defs>
  <rect x="2" y="2" width="28" height="28" rx="8" fill="#0a0a0b" stroke="url(#qmIconStroke)" stroke-width="1.25" />
  <g stroke-linecap="round" stroke-linejoin="round">
    <path d="M10 12h12M12 20h8M16 8v6M10 20l6-6 6 6" stroke="url(#qmIconEdge)" stroke-width="1.2" />
    <path d="M16 14l-5-3M16 14l5-3M16 14v6M11 23l5-3 5 3" stroke="url(#qmIconStroke)" stroke-width="1.35" />
  </g>
  <circle cx="16" cy="11" r="2.5" fill="#e0f2fe" />
  <circle cx="11" cy="17" r="2" fill="url(#qmIconStroke)" />
  <circle cx="21" cy="17" r="2" fill="url(#qmIconStroke)" />
  <circle cx="16" cy="22" r="2.5" fill="#38bdf8" />
  <circle cx="16" cy="16" r="3" fill="#0284c7" stroke="#e0f2fe" stroke-width="0.8" />
</svg>
